# xmcd
#
# Track frame offsets: 
#        150
#        14456
#        26690
#        42644
#        54374
#        66574
#        78891
#        92332
#        101956
#        120289
#        130612
#        148197
#        160699
#        175748
#
# Disc length: 2783 seconds
#
# Revision: 0
# Processed by: cddbd v1.5.2PL0 Copyright (c) Steve Scherf et al.
# Submitted via: ExactAudioCopy v0.99pb5
#
DISCID=b40add0e
DTITLE=Creedence Clearwater Revival  - The Singles Collection - Disc 2
DYEAR=1900
DGENRE=
TTITLE0=Run Through The Jungle (Mono Single Mix - 04.1970)
TTITLE1=Up Around The Bend (Mono Single Mix - 04.1970)
TTITLE2=Long As I Can See The Light (Mono Single Mix - 07.1970)
TTITLE3=Lookin' Out My Back Door (Mono Single Mix - 07.1970)
TTITLE4=Have You Ever Seen The Rain  (Mono Single Mix - 01.1971)
TTITLE5=Hey Tonight (Mono Single Mix - 01.1971)
TTITLE6=Sweet Hitch-Hiker (Mono Single Mix - 07.1971)
TTITLE7=Door To Door (Mono Single Mix - 07.1971)
TTITLE8=Someday Never Comes (Mono Single Mix - 05.1972)
TTITLE9=Tearin' Up The Country (Mono Single Mix - 05.1972)
TTITLE10=I Heard It Through The Grapevine (Mono Single Edit - 12.1975)
TTITLE11=Good Golly, Miss Molly (Mono Single Mix - 12.1975)
TTITLE12=45 Revolutions Per Minute (Part I) (Stereo - DJ Only Single -
TTITLE12=10.1970)
TTITLE13=45 Revolutions Per Minute (Part II) (Stereo - DJ Only Single 
TTITLE13=10.1970)
EXTD=
EXTT0=
EXTT1=
EXTT2=
EXTT3=
EXTT4=
EXTT5=
EXTT6=
EXTT7=
EXTT8=
EXTT9=
EXTT10=
EXTT11=
EXTT12=
EXTT13=
PLAYORDER=
